HIERARCHY
ROOT hip
{
  OFFSET 0 0 0
  CHANNELS 6 Xposition Yposition Zposition Zrotation Yrotation Xrotation
  JOINT abdomen
  {
    OFFSET 0 20.6881 -0.73152
    CHANNELS 3 Zrotation Xrotation Yrotation
    JOINT chest
    {
      OFFSET 0 11.7043 -0.48768
      CHANNELS 3 Zrotation Xrotation Yrotation
      JOINT neck
      {
        OFFSET 0 22.1894 -2.19456
        CHANNELS 3 Zrotation Xrotation Yrotation
        JOINT head
        {
          OFFSET -0.24384 7.07133 1.2192
          CHANNELS 3 Zrotation Xrotation Yrotation
          JOINT leftEye
          {
            OFFSET 4.14528 8.04674 8.04672
            CHANNELS 3 Zrotation Xrotation Yrotation
            End Site
            {
              OFFSET 1 0 0
            }
          }
          JOINT rightEye
          {
            OFFSET -3.6576 8.04674 8.04672
            CHANNELS 3 Zrotation Xrotation Yrotation
            End Site
            {
              OFFSET 1 0 0
            }
          }
        }
      }
      JOINT rCollar
      {
        OFFSET -2.68224 19.2634 -4.8768
        CHANNELS 3 Zrotation Xrotation Yrotation
        JOINT rShldr
        {
          OFFSET -8.77824 -1.95073 1.46304
          CHANNELS 3 Zrotation Xrotation Yrotation
          JOINT rForeArm
          {
            OFFSET -28.1742 -1.7115 0.48768
            CHANNELS 3 Zrotation Xrotation Yrotation
            JOINT rHand
            {
              OFFSET -22.5879 0.773209 7.07136
              CHANNELS 3 Zrotation Xrotation Yrotation
              JOINT rThumb1
              {
                OFFSET -1.2192 -0.487915 3.41376
                CHANNELS 3 Zrotation Xrotation Yrotation
                JOINT rThumb2
                {
                  OFFSET -3.37035 -0.52449 3.41376
                  CHANNELS 3 Zrotation Xrotation Yrotation
                  End Site
                  {
                    OFFSET -1.78271 -1.18214 1.43049
                  }
                }
              }
              JOINT rIndex1
              {
                OFFSET -7.75947 0.938293 5.60832
                CHANNELS 3 Zrotation Xrotation Yrotation
                JOINT rIndex2
                {
                  OFFSET -2.54057 -0.884171 1.56538
                  CHANNELS 3 Zrotation Xrotation Yrotation
                  End Site
                  {
                    OFFSET -1.62519 -0.234802 1.16502
                  }
                }
              }
              JOINT rMid1
              {
                OFFSET -8.24714 1.18213 3.41376
                CHANNELS 3 Zrotation Xrotation Yrotation
                JOINT rMid2
                {
                  OFFSET -3.10165 -0.590103 1.0647
                  CHANNELS 3 Zrotation Xrotation Yrotation
                  End Site
                  {
                    OFFSET -2.48547 -0.328903 0.83742
                  }
                }
              }
              JOINT rRing1
              {
                OFFSET -8.82822 0.546677 1.51678
                CHANNELS 3 Zrotation Xrotation Yrotation
                JOINT rRing2
                {
                  OFFSET -2.60934 -0.819778 -0.0198488
                  CHANNELS 3 Zrotation Xrotation Yrotation
                  End Site
                  {
                    OFFSET -2.33842 -0.294052 0.168128
                  }
                }
              }
              JOINT rPinky1
              {
                OFFSET -8.27202 -0.0477905 -0.4584
                CHANNELS 3 Zrotation Xrotation Yrotation
                JOINT rPinky2
                {
                  OFFSET -1.82734 -0.647385 -0.700984
                  CHANNELS 3 Zrotation Xrotation Yrotation
                  End Site
                  {
                    OFFSET -1.69225 -0.51767 -0.607171
                  }
                }
              }
            }
          }
        }
      }
      JOINT lCollar
      {
        OFFSET 2.68224 19.2634 -4.8768
        CHANNELS 3 Zrotation Xrotation Yrotation
        JOINT lShldr
        {
          OFFSET 8.77824 -1.95073 1.46304
          CHANNELS 3 Zrotation Xrotation Yrotation
          JOINT lForeArm
          {
            OFFSET 28.1742 -1.7115 0.48768
            CHANNELS 3 Zrotation Xrotation Yrotation
            JOINT lHand
            {
              OFFSET 22.5879 0.773209 7.07136
              CHANNELS 3 Zrotation Xrotation Yrotation
              JOINT lThumb1
              {
                OFFSET 1.2192 -0.487915 3.41376
                CHANNELS 3 Zrotation Xrotation Yrotation
                JOINT lThumb2
                {
                  OFFSET 3.37035 -0.52449 3.41376
                  CHANNELS 3 Zrotation Xrotation Yrotation
                  End Site
                  {
                    OFFSET 1.78271 -1.18214 1.43049
                  }
                }
              }
              JOINT lIndex1
              {
                OFFSET 7.75947 0.938293 5.60832
                CHANNELS 3 Zrotation Xrotation Yrotation
                JOINT lIndex2
                {
                  OFFSET 2.54057 -0.884171 1.56538
                  CHANNELS 3 Zrotation Xrotation Yrotation
                  End Site
                  {
                    OFFSET 1.62519 -0.234802 1.16502
                  }
                }
              }
              JOINT lMid1
              {
                OFFSET 8.24714 1.18213 3.41376
                CHANNELS 3 Zrotation Xrotation Yrotation
                JOINT lMid2
                {
                  OFFSET 3.10165 -0.590103 1.0647
                  CHANNELS 3 Zrotation Xrotation Yrotation
                  End Site
                  {
                    OFFSET 2.48547 -0.328903 0.83742
                  }
                }
              }
              JOINT lRing1
              {
                OFFSET 8.82822 0.546677 1.51678
                CHANNELS 3 Zrotation Xrotation Yrotation
                JOINT lRing2
                {
                  OFFSET 2.60934 -0.819778 -0.0198488
                  CHANNELS 3 Zrotation Xrotation Yrotation
                  End Site
                  {
                    OFFSET 2.33842 -0.294052 0.168128
                  }
                }
              }
              JOINT lPinky1
              {
                OFFSET 8.27202 -0.0477905 -0.4584
                CHANNELS 3 Zrotation Xrotation Yrotation
                JOINT lPinky2
                {
                  OFFSET 1.82734 -0.647385 -0.700984
                  CHANNELS 3 Zrotation Xrotation Yrotation
                  End Site
                  {
                    OFFSET 1.69225 -0.51767 -0.607171
                  }
                }
              }
            }
          }
        }
      }
    }
  }
  JOINT rButtock
  {
    OFFSET -8.77824 4.35084 1.2192
    CHANNELS 3 Zrotation Xrotation Yrotation
    JOINT rThigh
    {
      OFFSET 0 -1.70687 -2.19456
      CHANNELS 3 Zrotation Xrotation Yrotation
      JOINT rShin
      {
        OFFSET 0 -36.8199 0.73152
        CHANNELS 3 Zrotation Xrotation Yrotation
        JOINT rFoot
        {
          OFFSET 0.73152 -45.1104 -5.12064
          CHANNELS 3 Zrotation Xrotation Yrotation
          End Site
          {
            OFFSET -1.1221 -3.69964 12.103
          }
        }
      }
    }
  }
  JOINT lButtock
  {
    OFFSET 8.77824 4.35084 1.2192
    CHANNELS 3 Zrotation Xrotation Yrotation
    JOINT lThigh
    {
      OFFSET 0 -1.70687 -2.19456
      CHANNELS 3 Zrotation Xrotation Yrotation
      JOINT lShin
      {
        OFFSET 0 -36.8199 0.73152
        CHANNELS 3 Zrotation Xrotation Yrotation
        JOINT lFoot
        {
          OFFSET -0.73152 -45.1104 -5.12064
          CHANNELS 3 Zrotation Xrotation Yrotation
          End Site
          {
            OFFSET 1.1221 -3.69964 12.103
          }
        }
      }
    }
  }
}
MOTION
Frames:	6
Frame Time:	0.00833333
-83.1249 85.1887 6.0293 0.0 0.0 0.0 0.559351 -0.00286671 0.0159889 0.154366 -0.00442833 0.0267461 -6.88382e-15 0.0 -1.11816e-16 -2.086e-14 3.18055e-15 -3.6185e-16 -0.0 0.0 0.0 -0.0 0.0 0.0 -3.38073e-15 7.37677e-18 1.49089e-16 -7.24169e-14 5.28022e-16 -9.93923e-16 -1.25562e-12 3.85642e-13 -3.18055e-14 -1.43979e-11 -3.33337e-13 -2.63986e-13 -3.39604e-11 1.08723e-13 -6.36111e-13 -5.86602e-11 1.90833e-13 -1.08536e-12 -3.39572e-11 1.08139e-13 -6.45653e-13 7.73091 5.47488 0.417314 -3.39626e-11 1.07841e-13 -6.23389e-13 2.90554 0.965183 0.102902 -3.39595e-11 1.08238e-13 -6.28955e-13 10.2786 0.731801 0.0259123 -3.39705e-11 1.13705e-13 -6.17028e-13 2.22167 -0.733487 -0.20892 -3.57696e-15 7.37677e-18 -2.48481e-16 -7.43295e-14 5.40446e-16 -2.18663e-15 -1.2595e-12 -3.70733e-13 3.18055e-15 -1.43992e-11 4.11882e-13 -2.83069e-13 -3.39628e-11 8.38659e-14 -6.2975e-13 -5.86371e-11 1.39944e-13 -1.08139e-12 -3.39651e-11 8.15017e-14 -6.17028e-13 -7.73091 5.47488 -0.417314 -3.39613e-11 8.32908e-14 -6.26569e-13 -2.90554 0.965183 -0.102902 -3.39675e-11 8.32908e-14 -6.2816e-13 -10.2786 0.731801 -0.0259123 -3.3949e-11 8.82604e-14 -6.39292e-13 -2.22167 -0.733487 0.20892 -2.03217e-16 0.0 -3.88251e-19 0.922992 -4.50513 -0.0770316 -0.00206829 2.60853 -0.00962961 -0.50246 1.89677 0.0959418 2.03217e-16 0.0 3.88251e-19 -0.0712475 -2.35216 0.0224558 0.00807197 -1.29119 0.0691987 0.494618 3.64342 -0.130518
-80.3426 84.4255 3.60484 -28.2126 79.2825 -21.2377 2.353 -1.21075 0.192806 -0.152069 0.336473 0.0670891 0.275187 -1.52954 -5.27374 -0.52342 5.26136 -10.1196 -0.0 0.0 0.0 -0.0 0.0 0.0 2.21621e-14 -8.85059e-13 1.25638e-14 24.4205 4.69013 -0.10625 -4.07649 -1.82455 6.39683 0.131316 8.05337 1.09187 1.0928e-09 2.3474e-10 -8.32794e-10 1.86808e-09 4.06776e-10 -1.46428e-09 1.09281e-09 2.34739e-10 -8.32801e-10 7.73091 5.47488 0.417314 1.0928e-09 2.3474e-10 -8.32783e-10 2.90554 0.965183 0.102902 1.09281e-09 2.34739e-10 -8.32787e-10 10.2786 0.731801 0.0259123 1.0928e-09 2.34743e-10 -8.32777e-10 2.22167 -0.733487 -0.20892 2.20022e-14 -8.85058e-13 1.21923e-14 -24.1989 7.06688 -0.564915 4.67505 -2.2234 -7.19121 -0.00343075 -1.29933 0.18244 -2.92995e-10 -5.8632e-10 9.83419e-10 -5.06282e-10 -1.01296e-09 1.6998e-09 -2.92998e-10 -5.86321e-10 9.8343e-10 -7.73091 5.47488 -0.417314 -2.92994e-10 -5.86319e-10 9.83423e-10 -2.90554 0.965183 -0.102902 -2.93e-10 -5.8632e-10 9.83423e-10 -10.2786 0.731801 -0.0259123 -2.92985e-10 -5.86316e-10 9.83414e-10 -2.22167 -0.733487 0.20892 -2.03217e-16 0.0 -3.88251e-19 2.29891 -5.9821 2.90305 -0.00126337 4.61798 0.0336092 -0.708754 -0.979133 -3.43952 2.03217e-16 0.0 3.88251e-19 2.10727 -3.58706 0.201803 -0.00348017 1.6176 -0.0178305 0.734179 -2.43586 2.35901
-80.0553 84.5707 3.73039 -31.7744 80.821 -25.0366 4.25137 -2.45228 0.326974 -0.436632 0.704004 0.0952657 0.12872 -3.20322 -10.9087 1.07168 10.6201 -21.1469 -0.0 0.0 0.0 -0.0 0.0 0.0 5.12444e-14 -1.9219e-12 2.67614e-14 50.2577 9.66122 -0.223578 -7.95156 -3.68144 13.1888 -0.0766237 16.5505 2.31931 2.33613e-09 4.94516e-10 -1.75638e-09 3.99402e-09 8.56911e-10 -3.08805e-09 2.33613e-09 4.94515e-10 -1.75638e-09 7.73091 5.47488 0.417314 2.33613e-09 4.94517e-10 -1.75637e-09 2.90554 0.965183 0.102902 2.33613e-09 4.94514e-10 -1.75637e-09 10.2786 0.731801 0.0259123 2.33612e-09 4.94517e-10 -1.75636e-09 2.22167 -0.733487 -0.20892 5.11207e-14 -1.9219e-12 2.64166e-14 -49.625 14.5122 -1.19154 9.01745 -4.4586 -14.8309 0.00194738 -2.67192 0.375483 -5.84946e-10 -1.23725e-09 2.0678e-09 -1.01079e-09 -2.13756e-09 3.57409e-09 -5.84949e-10 -1.23725e-09 2.06781e-09 -7.73091 5.47488 -0.417314 -5.84945e-10 -1.23725e-09 2.0678e-09 -2.90554 0.965183 -0.102902 -5.8495e-10 -1.23725e-09 2.06781e-09 -10.2786 0.731801 -0.0259123 -5.84939e-10 -1.23725e-09 2.0678e-09 -2.22167 -0.733487 0.20892 -2.03217e-16 0.0 -3.88251e-19 3.9702 -7.42 6.12907 -0.00370836 6.69984 0.0791956 -1.32296 -3.99202 -7.28611 2.03217e-16 0.0 3.88251e-19 4.46919 -4.82851 0.398532 -0.0060278 4.69731 -0.110193 1.55207 -8.88865 4.96146
-79.7618 84.7232 3.8672 -36.7994 82.2428 -30.2485 5.9627 -3.62638 0.547408 -0.76638 1.01827 0.147795 -0.00935274 -4.43331 -15.8643 3.84874 13.8051 -31.2277 -0.0 0.0 0.0 -0.0 0.0 0.0 7.32478e-14 -2.65519e-12 3.73933e-14 73.3151 14.0702 -0.327508 -11.0284 -5.20129 19.2631 -0.601185 24.1233 3.55402 3.34634e-09 7.04003e-10 -2.49711e-09 5.72157e-09 1.21995e-09 -4.39066e-09 3.34634e-09 7.04002e-10 -2.49711e-09 7.73091 5.47488 0.417314 3.34634e-09 7.04004e-10 -2.4971e-09 2.90554 0.965183 0.102902 3.34635e-09 7.04001e-10 -2.4971e-09 10.2786 0.731801 0.0259123 3.34633e-09 7.04002e-10 -2.4971e-09 2.22167 -0.733487 -0.20892 7.31604e-14 -2.65519e-12 3.70737e-14 -72.153 21.1921 -1.8039 12.3864 -6.25081 -21.6927 0.0145801 -3.89784 0.548446 -8.1106e-10 -1.75913e-09 2.95152e-09 -1.40157e-09 -3.03915e-09 5.10157e-09 -8.11064e-10 -1.75913e-09 2.95152e-09 -7.73091 5.47488 -0.417314 -8.1106e-10 -1.75912e-09 2.95152e-09 -2.90554 0.965183 -0.102902 -8.11065e-10 -1.75913e-09 2.95152e-09 -10.2786 0.731801 -0.0259123 -8.11057e-10 -1.75912e-09 2.95152e-09 -2.22167 -0.733487 0.20892 -2.03217e-16 0.0 -3.88251e-19 5.5142 -8.85224 8.92241 -0.00884695 8.63687 0.121113 -2.18526 -6.62274 -10.5802 2.03217e-16 0.0 3.88251e-19 6.48762 -6.05664 0.562488 5.85522e-05 7.43513 -0.193459 2.83273 -14.4786 7.57299
-79.4511 85.0468 3.85949 -49.1017 84.4742 -42.536 7.2038 -4.63171 0.983478 -1.20877 1.19939 0.261198 0.554288 -4.731 -19.0682 5.18192 13.808 -37.8948 -0.0 0.0 0.0 -0.0 0.0 0.0 7.75541e-14 -2.62959e-12 3.91109e-14 89.3824 17.0741 -0.389011 -12.9546 -6.14101 23.4734 -1.19399 29.42 4.54576 3.77377e-09 7.87766e-10 -2.7807e-09 6.45317e-09 1.36523e-09 -4.89034e-09 3.77378e-09 7.87765e-10 -2.7807e-09 7.73091 5.47488 0.417314 3.77377e-09 7.87767e-10 -2.7807e-09 2.90554 0.965183 0.102902 3.77378e-09 7.87763e-10 -2.7807e-09 10.2786 0.731801 0.0259123 3.77377e-09 7.87764e-10 -2.78069e-09 2.22167 -0.733487 -0.20892 7.7503e-14 -2.62958e-12 3.88127e-14 -87.755 25.9661 -2.27904 14.4658 -7.33654 -26.4961 0.0278371 -4.75724 0.670142 -8.72584e-10 -1.95837e-09 3.33358e-09 -1.50804e-09 -3.38324e-09 5.762e-09 -8.72588e-10 -1.95836e-09 3.33358e-09 -7.73091 5.47488 -0.417314 -8.72584e-10 -1.95836e-09 3.33358e-09 -2.90554 0.965183 -0.102902 -8.72589e-10 -1.95837e-09 3.33359e-09 -10.2786 0.731801 -0.0259123 -8.72583e-10 -1.95837e-09 3.33358e-09 -2.22167 -0.733487 0.20892 -2.03217e-16 0.0 -3.88251e-19 6.44528 -10.341 10.5955 -0.0146857 10.2118 0.153075 -2.87312 -8.42029 -12.4132 2.03217e-16 0.0 3.88251e-19 7.6311 -7.25173 0.643019 0.00879569 9.31827 -0.252198 4.17286 -18.0107 9.96479
-80.4369 84.7963 2.6967 -34.5555 84.0945 -25.718 7.80971 -5.42146 1.80692 -1.87479 1.16417 0.482719 2.83884 -3.55433 -19.7391 2.22325 9.93557 -39.4596 -0.0 0.0 0.0 -0.0 0.0 0.0 5.15123e-14 -1.23279e-12 2.54413e-14 95.6449 18.087 -0.38014 -13.6182 -6.44487 25.0237 -1.49252 31.5571 4.98569 3.26646e-09 6.63044e-10 -2.29167e-09 5.58824e-09 1.14961e-09 -4.03408e-09 3.26647e-09 6.63043e-10 -2.29167e-09 7.73091 5.47488 0.417314 3.26646e-09 6.63044e-10 -2.29166e-09 2.90554 0.965183 0.102902 3.26647e-09 6.63041e-10 -2.29166e-09 10.2786 0.731801 0.0259123 3.26646e-09 6.63042e-10 -2.29166e-09 2.22167 -0.733487 -0.20892 5.15065e-14 -1.23279e-12 2.51614e-14 -93.8181 28.1065 -2.49145 15.2108 -7.70766 -28.3531 0.0341874 -5.10584 0.71963 -6.30107e-10 -1.62942e-09 2.90847e-09 -1.08933e-09 -2.81454e-09 5.02742e-09 -6.30109e-10 -1.62941e-09 2.90847e-09 -7.73091 5.47488 -0.417314 -6.30106e-10 -1.62941e-09 2.90847e-09 -2.90554 0.965183 -0.102902 -6.30111e-10 -1.62941e-09 2.90847e-09 -10.2786 0.731801 -0.0259123 -6.30105e-10 -1.62941e-09 2.90847e-09 -2.22167 -0.733487 0.20892 -2.03217e-16 0.0 -3.88251e-19 6.2874 -12.1052 10.5899 -0.019017 11.3574 0.171477 -2.93995 -9.13469 -11.9864 2.03217e-16 0.0 3.88251e-19 7.45716 -8.49205 0.580132 0.0126131 9.99914 -0.275143 5.07689 -18.6454 11.9885
